<?xml version="1.0" standalone="no"?>
<!DOCTYPE svg PUBLIC "-//W3C//DTD SVG 20010904//EN"
 "http://www.w3.org/TR/2001/REC-SVG-20010904/DTD/svg10.dtd">
<svg version="1.0" xmlns="http://www.w3.org/2000/svg"
 width="300.000000pt" height="133.000000pt" viewBox="0 0 300.000000 133.000000"
 preserveAspectRatio="xMidYMid meet">
<metadata>
Created by potrace 1.10, written by Peter Selinger 2001-2011
</metadata>
<g transform="translate(0.000000,133.000000) scale(0.100000,-0.100000)"
fill="#000000" stroke="none">
<path d="M716 1113 c-3 -3 -6 -69 -6 -145 0 -116 2 -138 15 -138 13 0 15 22
15 139 0 127 -6 162 -24 144z"/>
<path d="M881 906 c-70 -70 -99 -106 -91 -111 17 -11 218 191 204 205 -6 6
-44 -24 -113 -94z"/>
<path d="M450 982 c0 -17 198 -204 204 -193 4 7 -33 51 -89 106 -88 87 -115
108 -115 87z"/>
<path d="M370 715 c0 -13 21 -15 141 -15 108 0 140 3 137 13 -3 9 -43 13 -141
15 -117 2 -137 0 -137 -13z"/>
<path d="M826 572 c-16 -81 -31 -155 -33 -164 -3 -14 2 -18 20 -18 23 0 25 6
42 100 9 55 18 100 20 100 1 0 24 -46 51 -101 l49 -101 42 88 c24 48 43 94 43
101 0 7 3 13 8 13 4 0 16 -45 26 -100 18 -94 20 -100 43 -100 19 0 23 4 18 19
-7 24 -33 149 -47 234 -6 37 -15 67 -18 67 -4 0 -31 -52 -61 -115 -29 -63 -56
-111 -59 -107 -3 4 -28 54 -55 112 -26 58 -51 108 -54 112 -3 4 -19 -59 -35
-140z"/>
<path d="M1190 555 l0 -165 75 0 c74 0 75 0 75 26 0 24 -2 25 -52 23 l-53 -3
-3 52 -3 52 40 0 c34 0 41 3 41 20 0 17 -7 20 -40 20 l-40 0 0 45 0 45 50 0
c47 0 50 2 50 25 0 24 -2 25 -70 25 l-70 0 0 -165z"/>
<path d="M1380 719 c0 -2 -2 -78 -3 -168 l-2 -163 71 4 c46 3 84 12 104 24 92
54 94 224 3 277 -27 16 -173 38 -173 26z m143 -61 c49 -26 68 -92 43 -151 -17
-43 -47 -63 -103 -70 l-43 -5 0 119 0 119 41 0 c22 0 50 -5 62 -12z"/>
<path d="M1660 555 c0 -164 0 -165 23 -165 22 0 22 1 22 165 0 164 0 165 -22
165 -23 0 -23 -1 -23 -165z"/>
<path d="M1792 704 c-33 -23 -45 -60 -32 -100 9 -26 26 -42 68 -67 44 -26 58
-39 60 -60 5 -38 -35 -56 -85 -38 -29 11 -37 11 -44 0 -13 -21 -11 -25 16 -37
58 -27 130 -7 153 41 23 47 2 86 -68 130 -48 29 -60 42 -60 62 0 35 39 53 77
36 25 -12 42 -3 43 21 0 28 -93 37 -128 12z"/>
<path d="M1970 555 l0 -165 25 0 c25 0 25 1 25 80 l0 80 61 0 61 0 -4 -80 c-3
-77 -2 -80 19 -80 23 0 23 0 23 165 l0 165 -23 0 c-22 0 -23 -3 -19 -70 l4
-70 -61 0 -61 0 0 70 c0 68 -1 70 -25 70 l-25 0 0 -165z"/>
<path d="M2230 555 l0 -165 75 0 c74 0 75 0 75 26 0 24 -2 25 -52 23 l-53 -3
-3 52 -3 52 40 0 c34 0 41 3 41 20 0 17 -7 20 -40 20 l-40 0 0 45 0 45 50 0
c47 0 50 2 50 25 0 24 -2 25 -70 25 l-70 0 0 -165z"/>
<path d="M2415 555 l0 -167 71 4 c120 8 174 61 174 170 0 101 -51 146 -174
155 l-71 6 0 -168z m158 95 c75 -59 37 -210 -53 -210 -15 0 -35 -3 -44 -6 -14
-5 -16 9 -16 115 l0 121 44 0 c28 0 52 -7 69 -20z"/>
<path d="M567 562 c-95 -95 -108 -112 -86 -112 18 0 201 192 192 201 -5 5 -51
-33 -106 -89z"/>
</g>
</svg>
